<?xml version="1.0" encoding="iso-8859-1"?>
<!-- Generator: Adobe Illustrator 16.0.0, SVG Export Plug-In . SVG Version: 6.00 Build 0)  -->
<!DOCTYPE svg PUBLIC "-//W3C//DTD SVG 1.1//EN" "http://www.w3.org/Graphics/SVG/1.1/DTD/svg11.dtd">
<svg version="1.1" id="Capa_1" xmlns="http://www.w3.org/2000/svg" x="0px" y="0px" width="624.387px"
	height="624.387px" viewBox="0 0 624.387 624.387" style="enable-background:new 0 0 624.387 624.387;"
	xml:space="preserve">
<g>
	<g id="Shape_5">
		<g>
			<path d="M472.802,93.553c-4.541-2.544-10.236-1.751-13.937,1.938s-4.481,9.384-1.938,13.948
				c21.512,38.505,32.868,82.263,32.868,126.546c0,143.364-116.625,260.001-260.013,260.001c-44.26,0-88.006-11.38-126.534-32.891
				c-4.541-2.533-10.236-1.751-13.936,1.938c-3.688,3.688-4.482,9.384-1.938,13.947c50.096,89.687,144.929,145.396,247.489,145.407
				c156.227,0,283.321-127.105,283.333-283.333C618.174,238.458,562.465,143.625,472.802,93.553z M334.853,601.032
				c-80.523,0-155.865-37.443-204.747-99.829c31.735,11.917,65.572,18.126,99.701,18.126c156.227,0,283.321-127.106,283.321-283.345
				c0-34.129-6.198-67.966-18.115-99.701c62.374,48.858,99.817,124.2,99.829,204.759
				C594.842,484.396,478.206,601.032,334.853,601.032z M136.456,167.271c1.704,0.899,3.583,1.343,5.439,1.343
				c2.417,0,4.821-0.747,6.863-2.229c3.595-2.614,5.393-7.038,4.646-11.415l-8.007-46.699l33.93-33.077
				c3.187-3.105,4.319-7.739,2.953-11.964c-1.377-4.226-5.031-7.307-9.431-7.948l-46.886-6.816L104.988,5.979
				c-3.921-7.973-17.005-7.973-20.927,0L63.087,48.465l-46.897,6.816c-4.4,0.642-8.054,3.723-9.431,7.948
				c-1.365,4.225-0.233,8.858,2.953,11.964l33.93,33.077l-7.996,46.699c-0.758,4.377,1.051,8.801,4.634,11.415
				c3.607,2.614,8.38,2.953,12.302,0.887l41.937-22.048L136.456,167.271z M62.655,135.606l5.042-29.448
				c0.642-3.781-0.607-7.645-3.362-10.317L42.941,74.982l29.565-4.295c3.805-0.549,7.085-2.941,8.789-6.385l13.224-26.774
				l13.224,26.774c1.692,3.443,4.984,5.836,8.789,6.385l29.565,4.295l-21.395,20.858c-2.743,2.673-3.992,6.536-3.35,10.329
				l5.042,29.448l-26.437-13.901c-1.704-0.898-3.572-1.342-5.439-1.342c-1.868,0-3.724,0.443-5.439,1.342L62.655,135.606z"/>
		</g>
	</g>
</g>
<g>
</g>
<g>
</g>
<g>
</g>
<g>
</g>
<g>
</g>
<g>
</g>
<g>
</g>
<g>
</g>
<g>
</g>
<g>
</g>
<g>
</g>
<g>
</g>
<g>
</g>
<g>
</g>
<g>
</g>
</svg>
